<svg xmlns="http://www.w3.org/2000/svg" width="192" height="192" viewBox="0 0 192 192">
  <defs>
    <linearGradient id="grad" x1="0%" y1="0%" x2="100%" y2="100%">
      <stop offset="0%" style="stop-color:#06b6d4;stop-opacity:1" />
      <stop offset="100%" style="stop-color:#3b82f6;stop-opacity:1" />
    </linearGradient>
  </defs>
  <rect width="192" height="192" rx="38" fill="url(#grad)"/>
  <g fill="white" transform="translate(24, 24) scale(1.44)">
    <ellipse cx="50" cy="55" rx="30" ry="22" fill="white"/>
    <circle cx="70" cy="45" r="8" fill="white"/>
    <rect x="75" y="42" width="8" height="6" rx="2" fill="white"/>
    <rect x="45" y="32" width="10" height="4" rx="2" fill="#06b6d4"/>
    <circle cx="70" cy="43" r="2" fill="#06b6d4"/>
    <rect x="28" y="72" width="6" height="10" rx="2" fill="white"/>
    <rect x="42" y="72" width="6" height="10" rx="2" fill="white"/>
    <rect x="52" y="72" width="6" height="10" rx="2" fill="white"/>
    <rect x="66" y="72" width="6" height="10" rx="2" fill="white"/>
    <ellipse cx="30" cy="58" rx="8" ry="6" fill="white"/>
    <circle cx="28" cy="57" r="1.5" fill="#06b6d4"/>
    <circle cx="32" cy="57" r="1.5" fill="#06b6d4"/>
  </g>
</svg>
